# ProBuilder 4.5.2
# https://unity3d.com/unity/features/worldbuilding/probuilder
# 24.09.2021 15:52:14

mtllib ./Arch.mtl
o Arch

g Arch
v -1.325 -2.165064 -0.4
v -1.323287 -2.034179 -0.4
v -1.325 -2.165064 0.4
v -1.323287 -2.034179 0.4
v -1.023389 -2.042032 -0.4
v -1.025 -2.165064 -0.4
v -1.023389 -2.042032 0.4
v -1.025 -2.165064 0.4
v -1.318148 -1.903384 -0.4
v -1.318148 -1.903384 0.4
v -1.018559 -1.919085 -0.4
v -1.018559 -1.919085 0.4
v -1.309587 -1.772768 -0.4
v -1.309587 -1.772768 0.4
v -1.010511 -1.796306 -0.4
v -1.010511 -1.796306 0.4
v -1.29761 -1.642421 -0.4
v -1.29761 -1.642421 0.4
v -0.9992533 -1.67378 -0.4
v -0.9992533 -1.67378 0.4
v -1.282225 -1.512433 -0.4
v -1.282225 -1.512433 0.4
v -0.9847913 -1.55159 -0.4
v -0.9847913 -1.55159 0.4
v -1.263442 -1.382891 -0.4
v -1.263442 -1.382891 0.4
v -0.9671354 -1.429822 -0.4
v -0.9671354 -1.429822 0.4
v -1.241275 -1.253886 -0.4
v -1.241275 -1.253886 0.4
v -0.9462981 -1.308557 -0.4
v -0.9462981 -1.308557 0.4
v -1.215738 -1.125505 -0.4
v -1.215738 -1.125505 0.4
v -0.9222941 -1.187879 -0.4
v -0.9222941 -1.187879 0.4
v -1.18685 -0.9978368 -0.4
v -1.18685 -0.9978368 0.4
v -0.8951387 -1.06787 -0.4
v -0.8951387 -1.06787 0.4
v -1.154629 -0.8709683 -0.4
v -1.154629 -0.8709683 0.4
v -0.8648515 -0.9486141 -0.4
v -0.8648515 -0.9486141 0.4
v -1.119099 -0.7449868 -0.4
v -1.119099 -0.7449868 0.4
v -0.8314528 -0.8301915 -0.4
v -0.8314528 -0.8301915 0.4
v -1.080283 -0.6199787 -0.4
v -1.080283 -0.6199787 0.4
v -0.7949657 -0.7126838 -0.4
v -0.7949657 -0.7126838 0.4
v -1.038208 -0.4960293 -0.4
v -1.038208 -0.4960293 0.4
v -0.755415 -0.5961714 -0.4
v -0.755415 -0.5961714 0.4
v -0.9929023 -0.3732239 -0.4
v -0.9929023 -0.3732239 0.4
v -0.7128282 -0.4807343 -0.4
v -0.7128282 -0.4807343 0.4
v -0.9443979 -0.2516463 -0.4
v -0.9443979 -0.2516463 0.4
v -0.6672339 -0.3664515 -0.4
v -0.6672339 -0.3664515 0.4
v -0.8927274 -0.1313803 -0.4
v -0.8927274 -0.1313803 0.4
v -0.6186638 -0.2534015 -0.4
v -0.6186638 -0.2534015 0.4
v -0.8379264 -0.01250815 -0.4
v -0.8379264 -0.01250815 0.4
v -0.5671511 -0.1416616 -0.4
v -0.5671511 -0.1416616 0.4
v -0.7800331 0.1048889 -0.4
v -0.7800331 0.1048889 0.4
v -0.5127306 -0.03130841 -0.4
v -0.5127306 -0.03130841 0.4
v -0.7190862 0.2207301 -0.4
v -0.7190862 0.2207301 0.4
v -0.4554405 0.07758236 -0.4
v -0.4554405 0.07758236 0.4
v -0.655127 0.3349364 -0.4
v -0.655127 0.3349364 0.4
v -0.3953195 0.1849363 -0.4
v -0.3953195 0.1849363 0.4
v -0.588201 0.4474292 -0.4
v -0.588201 0.4474292 0.4
v -0.3324089 0.2906795 -0.4
v -0.3324089 0.2906795 0.4
v -0.518353 0.5581317 -0.4
v -0.518353 0.5581317 0.4
v -0.2667518 0.3947399 -0.4
v -0.2667518 0.3947399 0.4
v -0.445631 0.6669676 -0.4
v -0.445631 0.6669676 0.4
v -0.1983931 0.4970458 -0.4
v -0.1983931 0.4970458 0.4
v -0.3700852 0.7738626 -0.4
v -0.3700852 0.7738626 0.4
v -0.1273801 0.597527 -0.4
v -0.1273801 0.597527 0.4
v -0.2917669 0.8787434 -0.4
v -0.2917669 0.8787434 0.4
v -0.05376077 0.696115 -0.4
v -0.05376077 0.696115 0.4
v -0.2107298 0.9815383 -0.4
v -0.2107298 0.9815383 0.4
v 0.02241397 0.792742 -0.4
v 0.02241397 0.792742 0.4
v -0.1270301 1.082176 -0.4
v -0.1270301 1.082176 0.4
v 0.1010919 0.887342 -0.4
v 0.1010919 0.887342 0.4
v -0.04072428 1.180589 -0.4
v -0.04072428 1.180589 0.4
v 0.1822193 0.9798503 -0.4
v 0.1822193 0.9798503 0.4
v 0.04812765 1.276709 -0.4
v 0.04812765 1.276709 0.4
v 0.2657402 1.070203 -0.4
v 0.2657402 1.070203 0.4
v 0.1394658 1.37047 -0.4
v 0.1394658 1.37047 0.4
v 0.351598 1.158338 -0.4
v 0.351598 1.158338 0.4
v 0.233227 1.461808 -0.4
v 0.233227 1.461808 0.4
v 0.4397335 1.244196 -0.4
v 0.4397335 1.244196 0.4
v 0.3293469 1.550661 -0.4
v 0.3293469 1.550661 0.4
v 0.5300863 1.327717 -0.4
v 0.5300863 1.327717 0.4
v 0.4277596 1.636966 -0.4
v 0.4277596 1.636966 0.4
v 0.6225941 1.408844 -0.4
v 0.6225941 1.408844 0.4
v 0.5283976 1.720666 -0.4
v 0.5283976 1.720666 0.4
v 0.7171938 1.487522 -0.4
v 0.7171938 1.487522 0.4
v 0.6311927 1.801703 -0.4
v 0.6311927 1.801703 0.4
v 0.8138211 1.563697 -0.4
v 0.8138211 1.563697 0.4
v 0.7360733 1.880021 -0.4
v 0.7360733 1.880021 0.4
v 0.9124088 1.637316 -0.4
v 0.9124088 1.637316 0.4
v 0.8429685 1.955567 -0.4
v 0.8429685 1.955567 0.4
v 1.01289 1.708329 -0.4
v 1.01289 1.708329 0.4
v 0.9518044 2.028289 -0.4
v 0.9518044 2.028289 0.4
v 1.115196 1.776688 -0.4
v 1.115196 1.776688 0.4
v 1.062507 2.098137 -0.4
v 1.062507 2.098137 0.4
v 1.219256 1.842345 -0.4
v 1.219256 1.842345 0.4
v 1.175 2.165064 -0.4
v 1.175 2.165064 0.4
v 1.325 1.905256 -0.4
v 1.325 1.905256 0.4

vt -0.4 -2.182221
vt -0.4 -2.051325
vt 0.4 -2.182221
vt 0.4 -2.051325
vt 0.4 -2.055254
vt 0.4 -2.178296
vt -0.4 -2.055254
vt -0.4 -2.178296
vt -1.325 0.4
vt -1.025 0.4
vt -1.325 -0.4
vt -1.025 -0.4
vt -0.4 -2.084566
vt -0.4 -1.95367
vt 0.4 -2.084566
vt 0.4 -1.95367
vt 0.4 -1.957592
vt 0.4 -2.080634
vt -0.4 -1.957592
vt -0.4 -2.080634
vt -0.4 -1.985516
vt -0.4 -1.85462
vt 0.4 -1.985516
vt 0.4 -1.85462
vt 0.4 -1.858552
vt 0.4 -1.981594
vt -0.4 -1.858552
vt -0.4 -1.981594
vt -0.4 -1.885161
vt -0.4 -1.754265
vt 0.4 -1.885161
vt 0.4 -1.754265
vt 0.4 -1.758189
vt 0.4 -1.881231
vt -0.4 -1.758189
vt -0.4 -1.881231
vt -0.4 -1.783554
vt -0.4 -1.652658
vt 0.4 -1.783554
vt 0.4 -1.652658
vt 0.4 -1.656585
vt 0.4 -1.779627
vt -0.4 -1.656585
vt -0.4 -1.779627
vt -0.4 -1.680771
vt -0.4 -1.549875
vt 0.4 -1.680771
vt 0.4 -1.549875
vt 0.4 -1.553803
vt 0.4 -1.676845
vt -0.4 -1.553803
vt -0.4 -1.676845
vt -0.4 -1.576881
vt -0.4 -1.445985
vt 0.4 -1.576881
vt 0.4 -1.445985
vt 0.4 -1.449912
vt 0.4 -1.572954
vt -0.4 -1.449912
vt -0.4 -1.572954
vt -0.4 -1.471954
vt -0.4 -1.341058
vt 0.4 -1.471954
vt 0.4 -1.341058
vt 0.4 -1.344983
vt 0.4 -1.468025
vt -0.4 -1.344983
vt -0.4 -1.468025
vt -0.4 -1.366062
vt -0.4 -1.235166
vt 0.4 -1.366062
vt 0.4 -1.235166
vt 0.4 -1.239096
vt 0.4 -1.362138
vt -0.4 -1.239096
vt -0.4 -1.362138
vt -0.4 -1.259284
vt -0.4 -1.128388
vt 0.4 -1.259284
vt 0.4 -1.128388
vt 0.4 -1.132312
vt 0.4 -1.255354
vt -0.4 -1.132312
vt -0.4 -1.255354
vt -0.4 -1.151679
vt -0.4 -1.020783
vt 0.4 -1.151679
vt 0.4 -1.020783
vt 0.4 -1.024712
vt 0.4 -1.147754
vt -0.4 -1.024712
vt -0.4 -1.147754
vt -0.4 -1.043336
vt -0.4 -0.9124404
vt 0.4 -1.043336
vt 0.4 -0.9124404
vt 0.4 -0.9163676
vt 0.4 -1.03941
vt -0.4 -0.9163676
vt -0.4 -1.03941
vt -0.4 -0.934325
vt -0.4 -0.8034288
vt 0.4 -0.934325
vt 0.4 -0.8034288
vt 0.4 -0.8073534
vt 0.4 -0.9303957
vt -0.4 -0.8073534
vt -0.4 -0.9303957
vt -0.4 -0.8247114
vt -0.4 -0.6938156
vt 0.4 -0.8247114
vt 0.4 -0.6938156
vt 0.4 -0.6977422
vt 0.4 -0.8207842
vt -0.4 -0.6977422
vt -0.4 -0.8207842
vt -0.4 -0.7145802
vt -0.4 -0.583684
vt 0.4 -0.7145802
vt 0.4 -0.583684
vt 0.4 -0.5876121
vt 0.4 -0.7106544
vt -0.4 -0.5876121
vt -0.4 -0.7106544
vt -0.4 -0.6040068
vt -0.4 -0.4731109
vt 0.4 -0.6040068
vt 0.4 -0.4731109
vt 0.4 -0.477037
vt 0.4 -0.6000791
vt -0.4 -0.477037
vt -0.4 -0.6000791
vt -0.4 -0.493062
vt -0.4 -0.3621661
vt 0.4 -0.493062
vt 0.4 -0.3621661
vt 0.4 -0.3660921
vt 0.4 -0.4891342
vt -0.4 -0.3660921
vt -0.4 -0.4891342
vt -0.4 -0.3818208
vt -0.4 -0.250925
vt 0.4 -0.3818208
vt 0.4 -0.250925
vt 0.4 -0.2548555
vt 0.4 -0.3778979
vt -0.4 -0.2548555
vt -0.4 -0.3778979
vt -0.4 -0.2703691
vt -0.4 -0.1394734
vt 0.4 -0.2703691
vt 0.4 -0.1394734
vt 0.4 -0.1433999
vt 0.4 -0.266442
vt -0.4 -0.1433999
vt -0.4 -0.266442
vt -0.4 -0.1587772
vt -0.4 -0.02788084
vt 0.4 -0.1587772
vt 0.4 -0.02788084
vt 0.4 -0.03180522
vt 0.4 -0.1548475
vt -0.4 -0.03180522
vt -0.4 -0.1548475
vt -0.4 -0.04711457
vt -0.4 0.08378126
vt 0.4 -0.04711457
vt 0.4 0.08378126
vt 0.4 0.07985348
vt 0.4 -0.04318861
vt -0.4 0.07985348
vt -0.4 -0.04318861
vt -0.4 0.06453077
vt -0.4 0.1954269
vt 0.4 0.06453077
vt 0.4 0.1954269
vt 0.4 0.1915001
vt 0.4 0.06845776
vt -0.4 0.1915001
vt -0.4 0.06845776
vt -0.4 0.1760875
vt -0.4 0.3069835
vt 0.4 0.1760875
vt 0.4 0.3069835
vt 0.4 0.303057
vt 0.4 0.1800147
vt -0.4 0.303057
vt -0.4 0.1800147
vt -0.4 0.2874802
vt -0.4 0.4183759
vt 0.4 0.2874802
vt 0.4 0.4183759
vt 0.4 0.4144491
vt 0.4 0.2914071
vt -0.4 0.4144491
vt -0.4 0.2914071
vt -0.4 0.3986286
vt -0.4 0.5295246
vt 0.4 0.3986286
vt 0.4 0.5295246
vt 0.4 0.5255978
vt 0.4 0.4025555
vt -0.4 0.5255978
vt -0.4 0.4025555
vt -0.4 0.5094606
vt -0.4 0.6403567
vt 0.4 0.5094606
vt 0.4 0.6403567
vt 0.4 0.6364296
vt 0.4 0.5133874
vt -0.4 0.6364296
vt -0.4 0.5133874
vt -0.4 0.6198996
vt -0.4 0.7507953
vt 0.4 0.6198996
vt 0.4 0.7507953
vt 0.4 0.7468679
vt 0.4 0.6238258
vt -0.4 0.7468679
vt -0.4 0.6238258
vt -0.4 0.7298666
vt -0.4 0.8607628
vt 0.4 0.7298666
vt 0.4 0.8607628
vt 0.4 0.8568366
vt 0.4 0.7337942
vt -0.4 0.8568366
vt -0.4 0.7337942
vt -0.4 0.8392904
vt -0.4 0.970186
vt 0.4 0.8392904
vt 0.4 0.970186
vt 0.4 0.9662582
vt 0.4 0.8432165
vt -0.4 0.9662582
vt -0.4 0.8432165
vt -0.4 0.948092
vt -0.4 1.078988
vt 0.4 0.948092
vt 0.4 1.078988
vt 0.4 1.075061
vt 0.4 0.9520189
vt -0.4 1.075061
vt -0.4 0.9520189
vt -1.056199 -0.4
vt -1.187094 -0.4
vt -1.056199 0.4
vt -1.187094 0.4
vt 1.183169 -0.4
vt 1.060127 -0.4
vt 1.183169 0.4
vt 1.060127 0.4
vt -1.163543 -0.4
vt -1.29444 -0.4
vt -1.163543 0.4
vt -1.29444 0.4
vt 1.29051 -0.4
vt 1.167468 -0.4
vt 1.29051 0.4
vt 1.167468 0.4
vt -1.270036 -0.4
vt -1.400932 -0.4
vt -1.270036 0.4
vt -1.400932 0.4
vt 1.397007 -0.4
vt 1.273965 -0.4
vt 1.397007 0.4
vt 1.273965 0.4
vt -1.37562 -0.4
vt -1.506515 -0.4
vt -1.37562 0.4
vt -1.506515 0.4
vt 1.502589 -0.4
vt 1.379547 -0.4
vt 1.502589 0.4
vt 1.379547 0.4
vt -1.480213 -0.4
vt -1.611109 -0.4
vt -1.480213 0.4
vt -1.611109 0.4
vt 1.607183 -0.4
vt 1.48414 -0.4
vt 1.607183 0.4
vt 1.48414 0.4
vt -1.583751 -0.4
vt -1.714647 -0.4
vt -1.583751 0.4
vt -1.714647 0.4
vt 1.71072 -0.4
vt 1.587677 -0.4
vt 1.71072 0.4
vt 1.587677 0.4
vt -1.686151 -0.4
vt -1.817047 -0.4
vt -1.686151 0.4
vt -1.817047 0.4
vt 1.81312 -0.4
vt 1.690078 -0.4
vt 1.81312 0.4
vt 1.690078 0.4
vt -1.787358 -0.4
vt -1.918254 -0.4
vt -1.787358 0.4
vt -1.918254 0.4
vt 1.914327 -0.4
vt 1.791285 -0.4
vt 1.914327 0.4
vt 1.791285 0.4
vt -1.887293 -0.4
vt -2.018189 -0.4
vt -1.887293 0.4
vt -2.018189 0.4
vt 2.014261 -0.4
vt 1.891219 -0.4
vt 2.014261 0.4
vt 1.891219 0.4
vt -1.985888 -0.4
vt -2.116785 -0.4
vt -1.985888 0.4
vt -2.116785 0.4
vt 2.112859 -0.4
vt 1.989816 -0.4
vt 2.112859 0.4
vt 1.989816 0.4
vt -0.4 0.9874994
vt -0.4 1.287499
vt 0.4 0.9874994
vt 0.4 1.287499
vt -1.325 -2.165064
vt -1.323287 -2.034179
vt -1.025 -2.165064
vt -1.023389 -2.042032
vt 1.323287 -2.034179
vt 1.325 -2.165064
vt 1.023389 -2.042032
vt 1.025 -2.165064
vt -1.318148 -1.903384
vt -1.018559 -1.919085
vt 1.318148 -1.903384
vt 1.018559 -1.919085
vt -1.309587 -1.772768
vt -1.010511 -1.796306
vt 1.309587 -1.772768
vt 1.010511 -1.796306
vt -1.29761 -1.642421
vt -0.9992533 -1.67378
vt 1.29761 -1.642421
vt 0.9992533 -1.67378
vt -1.282225 -1.512433
vt -0.9847913 -1.55159
vt 1.282225 -1.512433
vt 0.9847913 -1.55159
vt -1.263442 -1.382891
vt -0.9671354 -1.429822
vt 1.263442 -1.382891
vt 0.9671354 -1.429822
vt -1.241275 -1.253886
vt -0.9462981 -1.308557
vt 1.241275 -1.253886
vt 0.9462981 -1.308557
vt -1.215738 -1.125505
vt -0.9222941 -1.187879
vt 1.215738 -1.125505
vt 0.9222941 -1.187879
vt -1.18685 -0.9978368
vt -0.8951387 -1.06787
vt 1.18685 -0.9978368
vt 0.8951387 -1.06787
vt -1.154629 -0.8709683
vt -0.8648515 -0.9486141
vt 1.154629 -0.8709683
vt 0.8648515 -0.9486141
vt -1.119099 -0.7449868
vt -0.8314528 -0.8301915
vt 1.119099 -0.7449868
vt 0.8314528 -0.8301915
vt -1.080283 -0.6199787
vt -0.7949657 -0.7126838
vt 1.080283 -0.6199787
vt 0.7949657 -0.7126838
vt -1.038208 -0.4960293
vt -0.755415 -0.5961714
vt 1.038208 -0.4960293
vt 0.755415 -0.5961714
vt -0.9929023 -0.3732239
vt -0.7128282 -0.4807343
vt 0.9929023 -0.3732239
vt 0.7128282 -0.4807343
vt -0.9443979 -0.2516463
vt -0.6672339 -0.3664515
vt 0.9443979 -0.2516463
vt 0.6672339 -0.3664515
vt -0.8927274 -0.1313803
vt -0.6186638 -0.2534015
vt 0.8927274 -0.1313803
vt 0.6186638 -0.2534015
vt -0.8379264 -0.01250815
vt -0.5671511 -0.1416616
vt 0.8379264 -0.01250815
vt 0.5671511 -0.1416616
vt -0.7800331 0.1048889
vt -0.5127306 -0.03130841
vt 0.7800331 0.1048889
vt 0.5127306 -0.03130841
vt -0.7190862 0.2207301
vt -0.4554405 0.07758236
vt 0.7190862 0.2207301
vt 0.4554405 0.07758236
vt -0.655127 0.3349364
vt -0.3953195 0.1849363
vt 0.655127 0.3349364
vt 0.3953195 0.1849363
vt -0.588201 0.4474292
vt -0.3324089 0.2906795
vt 0.588201 0.4474292
vt 0.3324089 0.2906795
vt -0.518353 0.5581317
vt -0.2667518 0.3947399
vt 0.518353 0.5581317
vt 0.2667518 0.3947399
vt -0.445631 0.6669676
vt -0.1983931 0.4970458
vt 0.445631 0.6669676
vt 0.1983931 0.4970458
vt -0.3700852 0.7738626
vt -0.1273801 0.597527
vt 0.3700852 0.7738626
vt 0.1273801 0.597527
vt -0.2917669 0.8787434
vt -0.05376077 0.696115
vt 0.2917669 0.8787434
vt 0.05376077 0.696115
vt -0.2107298 0.9815383
vt 0.02241397 0.792742
vt 0.2107298 0.9815383
vt -0.02241397 0.792742
vt -0.1270301 1.082176
vt 0.1010919 0.887342
vt 0.1270301 1.082176
vt -0.1010919 0.887342
vt -0.04072428 1.180589
vt 0.1822193 0.9798503
vt 0.04072428 1.180589
vt -0.1822193 0.9798503
vt 0.04812765 1.276709
vt 0.2657402 1.070203
vt -0.04812765 1.276709
vt -0.2657402 1.070203
vt 0.1394658 1.37047
vt 0.351598 1.158338
vt -0.1394658 1.37047
vt -0.351598 1.158338
vt 0.233227 1.461808
vt 0.4397335 1.244196
vt -0.233227 1.461808
vt -0.4397335 1.244196
vt 0.3293469 1.550661
vt 0.5300863 1.327717
vt -0.3293469 1.550661
vt -0.5300863 1.327717
vt 0.4277596 1.636966
vt 0.6225941 1.408844
vt -0.4277596 1.636966
vt -0.6225941 1.408844
vt 0.5283976 1.720666
vt 0.7171938 1.487522
vt -0.5283976 1.720666
vt -0.7171938 1.487522
vt 0.6311927 1.801703
vt 0.8138211 1.563697
vt -0.6311927 1.801703
vt -0.8138211 1.563697
vt 0.7360733 1.880021
vt 0.9124088 1.637316
vt -0.7360733 1.880021
vt -0.9124088 1.637316
vt 0.8429685 1.955567
vt 1.01289 1.708329
vt -0.8429685 1.955567
vt -1.01289 1.708329
vt 0.9518044 2.028289
vt 1.115196 1.776688
vt -0.9518044 2.028289
vt -1.115196 1.776688
vt 1.062507 2.098137
vt 1.219256 1.842345
vt -1.062507 2.098137
vt -1.219256 1.842345
vt 1.175 2.165064
vt 1.325 1.905256
vt -1.175 2.165064
vt -1.325 1.905256

vn -0.9999143 0.01308885 0
vn 0.9999143 -0.01309109 0
vn 0 -1 0
vn -0.999229 0.03926285 0
vn 0.9992291 -0.03925776 0
vn -0.9978591 0.06540048 0
vn 0.9978588 -0.06540503 0
vn -0.995805 0.09150162 0
vn 0.9958053 -0.09149809 0
vn -0.9930685 0.1175372 0
vn 0.9930685 -0.1175368 0
vn -0.9896514 0.1434927 0
vn 0.9896512 -0.1434943 0
vn -0.985556 0.16935 0
vn 0.9855558 -0.1693509 0
vn -0.9807853 0.1950902 0
vn 0.9807858 -0.1950874 0
vn -0.9753426 0.2206963 0
vn 0.9753417 -0.2207 0
vn -0.9692303 0.2461558 0
vn 0.9692309 -0.2461533 0
vn -0.962456 0.2714377 0
vn 0.9624553 -0.2714404 0
vn -0.9550201 0.2965411 0
vn 0.95502 -0.2965415 0
vn -0.946929 0.3214428 0
vn 0.9469298 -0.3214405 0
vn -0.9381914 0.3461168 0
vn 0.9381918 -0.3461159 0
vn -0.9288101 0.3705561 0
vn 0.9288096 -0.3705573 0
vn -0.9187906 0.3947453 0
vn 0.9187911 -0.3947442 0
vn -0.9081427 0.4186608 0
vn 0.9081434 -0.4186592 0
vn -0.8968744 0.4422853 0
vn 0.8968719 -0.4422905 0
vn -0.8849878 0.4656143 0
vn 0.8849881 -0.4656137 0
vn -0.8724943 0.4886242 0
vn 0.8724961 -0.4886211 0
vn -0.859407 0.511292 0
vn 0.8594065 -0.511293 0
vn -0.8457279 0.5336145 0
vn 0.8457282 -0.533614 0
vn -0.8314692 0.5555708 0
vn 0.8314694 -0.5555706 0
vn -0.8166419 0.5771446 0
vn 0.8166422 -0.5771443 0
vn -0.8012533 0.5983253 0
vn 0.801253 -0.5983258 0
vn -0.7853166 0.6190944 0
vn 0.7853163 -0.6190947 0
vn -0.7688425 0.6394383 0
vn 0.7688421 -0.6394387 0
vn -0.7518399 0.6593457 0
vn 0.7518407 -0.6593449 0
vn -0.7343231 0.6788001 0
vn 0.7343222 -0.6788011 0
vn -0.7163019 0.6977906 0
vn 0.7163016 -0.6977909 0
vn -0.6977887 0.7163036 0
vn 0.6977898 -0.7163026 0
vn -0.6788031 0.7343203 0
vn 0.6788014 -0.734322 0
vn -0.6593446 0.7518409 0
vn 0.6593457 -0.7518399 0
vn -0.6394392 0.7688417 0
vn 0.6394396 -0.7688413 0
vn -0.6190935 0.7853173 0
vn 0.6190938 -0.7853171 0
vn -0.5983262 0.8012527 0
vn 0.5983267 -0.8012522 0
vn -0.5771438 0.8166425 0
vn 0.5771434 -0.8166428 0
vn -0.5555708 0.8314692 0
vn 0.5555706 -0.8314694 0
vn -0.5336152 0.8457273 0
vn 0.5336149 -0.8457276 0
vn -0.5112932 0.8594064 0
vn 0.5112942 -0.8594058 0
vn 0.8660252 0.5000003 0
vn 0 0 1
vn 0 0 -1

usemtl ProBuilderDefault
f 3/3/1 4/4/1 2/2/1 1/1/1
f 7/7/2 8/8/2 6/6/2 5/5/2
f 1/11/3 6/12/3 8/10/3 3/9/3
f 4/15/4 10/16/4 9/14/4 2/13/4
f 12/19/5 7/20/5 5/18/5 11/17/5
f 10/23/6 14/24/6 13/22/6 9/21/6
f 16/27/7 12/28/7 11/26/7 15/25/7
f 14/31/8 18/32/8 17/30/8 13/29/8
f 20/35/9 16/36/9 15/34/9 19/33/9
f 18/39/10 22/40/10 21/38/10 17/37/10
f 24/43/11 20/44/11 19/42/11 23/41/11
f 22/47/12 26/48/12 25/46/12 21/45/12
f 28/51/13 24/52/13 23/50/13 27/49/13
f 26/55/14 30/56/14 29/54/14 25/53/14
f 32/59/15 28/60/15 27/58/15 31/57/15
f 30/63/16 34/64/16 33/62/16 29/61/16
f 36/67/17 32/68/17 31/66/17 35/65/17
f 34/71/18 38/72/18 37/70/18 33/69/18
f 40/75/19 36/76/19 35/74/19 39/73/19
f 38/79/20 42/80/20 41/78/20 37/77/20
f 44/83/21 40/84/21 39/82/21 43/81/21
f 42/87/22 46/88/22 45/86/22 41/85/22
f 48/91/23 44/92/23 43/90/23 47/89/23
f 46/95/24 50/96/24 49/94/24 45/93/24
f 52/99/25 48/100/25 47/98/25 51/97/25
f 50/103/26 54/104/26 53/102/26 49/101/26
f 56/107/27 52/108/27 51/106/27 55/105/27
f 54/111/28 58/112/28 57/110/28 53/109/28
f 60/115/29 56/116/29 55/114/29 59/113/29
f 58/119/30 62/120/30 61/118/30 57/117/30
f 64/123/31 60/124/31 59/122/31 63/121/31
f 62/127/32 66/128/32 65/126/32 61/125/32
f 68/131/33 64/132/33 63/130/33 67/129/33
f 66/135/34 70/136/34 69/134/34 65/133/34
f 72/139/35 68/140/35 67/138/35 71/137/35
f 70/143/36 74/144/36 73/142/36 69/141/36
f 76/147/37 72/148/37 71/146/37 75/145/37
f 74/151/38 78/152/38 77/150/38 73/149/38
f 80/155/39 76/156/39 75/154/39 79/153/39
f 78/159/40 82/160/40 81/158/40 77/157/40
f 84/163/41 80/164/41 79/162/41 83/161/41
f 82/167/42 86/168/42 85/166/42 81/165/42
f 88/171/43 84/172/43 83/170/43 87/169/43
f 86/175/44 90/176/44 89/174/44 85/173/44
f 92/179/45 88/180/45 87/178/45 91/177/45
f 90/183/46 94/184/46 93/182/46 89/181/46
f 96/187/47 92/188/47 91/186/47 95/185/47
f 94/191/48 98/192/48 97/190/48 93/189/48
f 100/195/49 96/196/49 95/194/49 99/193/49
f 98/199/50 102/200/50 101/198/50 97/197/50
f 104/203/51 100/204/51 99/202/51 103/201/51
f 102/207/52 106/208/52 105/206/52 101/205/52
f 108/211/53 104/212/53 103/210/53 107/209/53
f 106/215/54 110/216/54 109/214/54 105/213/54
f 112/219/55 108/220/55 107/218/55 111/217/55
f 110/223/56 114/224/56 113/222/56 109/221/56
f 116/227/57 112/228/57 111/226/57 115/225/57
f 114/231/58 118/232/58 117/230/58 113/229/58
f 120/235/59 116/236/59 115/234/59 119/233/59
f 118/239/60 122/240/60 121/238/60 117/237/60
f 124/243/61 120/244/61 119/242/61 123/241/61
f 122/247/62 126/248/62 125/246/62 121/245/62
f 128/251/63 124/252/63 123/250/63 127/249/63
f 126/255/64 130/256/64 129/254/64 125/253/64
f 132/259/65 128/260/65 127/258/65 131/257/65
f 130/263/66 134/264/66 133/262/66 129/261/66
f 136/267/67 132/268/67 131/266/67 135/265/67
f 134/271/68 138/272/68 137/270/68 133/269/68
f 140/275/69 136/276/69 135/274/69 139/273/69
f 138/279/70 142/280/70 141/278/70 137/277/70
f 144/283/71 140/284/71 139/282/71 143/281/71
f 142/287/72 146/288/72 145/286/72 141/285/72
f 148/291/73 144/292/73 143/290/73 147/289/73
f 146/295/74 150/296/74 149/294/74 145/293/74
f 152/299/75 148/300/75 147/298/75 151/297/75
f 150/303/76 154/304/76 153/302/76 149/301/76
f 156/307/77 152/308/77 151/306/77 155/305/77
f 154/311/78 158/312/78 157/310/78 153/309/78
f 160/315/79 156/316/79 155/314/79 159/313/79
f 158/319/80 162/320/80 161/318/80 157/317/80
f 164/323/81 160/324/81 159/322/81 163/321/81
f 163/327/82 161/328/82 162/326/82 164/325/82
f 8/331/83 7/332/83 4/330/83 3/329/83
f 5/335/84 6/336/84 1/334/84 2/333/84
f 7/332/83 12/338/83 10/337/83 4/330/83
f 11/340/84 5/335/84 2/333/84 9/339/84
f 12/338/83 16/342/83 14/341/83 10/337/83
f 15/344/84 11/340/84 9/339/84 13/343/84
f 16/342/83 20/346/83 18/345/83 14/341/83
f 19/348/84 15/344/84 13/343/84 17/347/84
f 20/346/83 24/350/83 22/349/83 18/345/83
f 23/352/84 19/348/84 17/347/84 21/351/84
f 24/350/83 28/354/83 26/353/83 22/349/83
f 27/356/84 23/352/84 21/351/84 25/355/84
f 28/354/83 32/358/83 30/357/83 26/353/83
f 31/360/84 27/356/84 25/355/84 29/359/84
f 32/358/83 36/362/83 34/361/83 30/357/83
f 35/364/84 31/360/84 29/359/84 33/363/84
f 36/362/83 40/366/83 38/365/83 34/361/83
f 39/368/84 35/364/84 33/363/84 37/367/84
f 40/366/83 44/370/83 42/369/83 38/365/83
f 43/372/84 39/368/84 37/367/84 41/371/84
f 44/370/83 48/374/83 46/373/83 42/369/83
f 47/376/84 43/372/84 41/371/84 45/375/84
f 48/374/83 52/378/83 50/377/83 46/373/83
f 51/380/84 47/376/84 45/375/84 49/379/84
f 52/378/83 56/382/83 54/381/83 50/377/83
f 55/384/84 51/380/84 49/379/84 53/383/84
f 56/382/83 60/386/83 58/385/83 54/381/83
f 59/388/84 55/384/84 53/383/84 57/387/84
f 60/386/83 64/390/83 62/389/83 58/385/83
f 63/392/84 59/388/84 57/387/84 61/391/84
f 64/390/83 68/394/83 66/393/83 62/389/83
f 67/396/84 63/392/84 61/391/84 65/395/84
f 68/394/83 72/398/83 70/397/83 66/393/83
f 71/400/84 67/396/84 65/395/84 69/399/84
f 72/398/83 76/402/83 74/401/83 70/397/83
f 75/404/84 71/400/84 69/399/84 73/403/84
f 76/402/83 80/406/83 78/405/83 74/401/83
f 79/408/84 75/404/84 73/403/84 77/407/84
f 80/406/83 84/410/83 82/409/83 78/405/83
f 83/412/84 79/408/84 77/407/84 81/411/84
f 84/410/83 88/414/83 86/413/83 82/409/83
f 87/416/84 83/412/84 81/411/84 85/415/84
f 88/414/83 92/418/83 90/417/83 86/413/83
f 91/420/84 87/416/84 85/415/84 89/419/84
f 92/418/83 96/422/83 94/421/83 90/417/83
f 95/424/84 91/420/84 89/419/84 93/423/84
f 96/422/83 100/426/83 98/425/83 94/421/83
f 99/428/84 95/424/84 93/423/84 97/427/84
f 100/426/83 104/430/83 102/429/83 98/425/83
f 103/432/84 99/428/84 97/427/84 101/431/84
f 104/430/83 108/434/83 106/433/83 102/429/83
f 107/436/84 103/432/84 101/431/84 105/435/84
f 108/434/83 112/438/83 110/437/83 106/433/83
f 111/440/84 107/436/84 105/435/84 109/439/84
f 112/438/83 116/442/83 114/441/83 110/437/83
f 115/444/84 111/440/84 109/439/84 113/443/84
f 116/442/83 120/446/83 118/445/83 114/441/83
f 119/448/84 115/444/84 113/443/84 117/447/84
f 120/446/83 124/450/83 122/449/83 118/445/83
f 123/452/84 119/448/84 117/447/84 121/451/84
f 124/450/83 128/454/83 126/453/83 122/449/83
f 127/456/84 123/452/84 121/451/84 125/455/84
f 128/454/83 132/458/83 130/457/83 126/453/83
f 131/460/84 127/456/84 125/455/84 129/459/84
f 132/458/83 136/462/83 134/461/83 130/457/83
f 135/464/84 131/460/84 129/459/84 133/463/84
f 136/462/83 140/466/83 138/465/83 134/461/83
f 139/468/84 135/464/84 133/463/84 137/467/84
f 140/466/83 144/470/83 142/469/83 138/465/83
f 143/472/84 139/468/84 137/467/84 141/471/84
f 144/470/83 148/474/83 146/473/83 142/469/83
f 147/476/84 143/472/84 141/471/84 145/475/84
f 148/474/83 152/478/83 150/477/83 146/473/83
f 151/480/84 147/476/84 145/475/84 149/479/84
f 152/478/83 156/482/83 154/481/83 150/477/83
f 155/484/84 151/480/84 149/479/84 153/483/84
f 156/482/83 160/486/83 158/485/83 154/481/83
f 159/488/84 155/484/84 153/483/84 157/487/84
f 160/486/83 164/490/83 162/489/83 158/485/83
f 163/492/84 159/488/84 157/487/84 161/491/84

